<!-- Generated by IcoMoon.io -->
<svg version="1.1" xmlns="http://www.w3.org/2000/svg" width="32" height="32" viewBox="0 0 32 32">
<title>ph_instagram-logo</title>
<path d="M16 10c-1.187 0-2.347 0.352-3.333 1.011s-1.756 1.596-2.21 2.693c-0.454 1.096-0.573 2.303-0.341 3.467s0.803 2.233 1.642 3.072 1.908 1.411 3.072 1.642c1.164 0.232 2.37 0.113 3.467-0.341s2.033-1.223 2.693-2.21c0.659-0.987 1.011-2.147 1.011-3.333 0-1.591-0.632-3.117-1.757-4.243s-2.651-1.757-4.243-1.757zM16 20c-0.791 0-1.564-0.235-2.222-0.674s-1.17-1.064-1.473-1.795-0.382-1.535-0.228-2.311c0.154-0.776 0.535-1.489 1.095-2.048s1.272-0.94 2.048-1.095c0.776-0.154 1.58-0.075 2.311 0.228s1.356 0.815 1.795 1.473c0.44 0.658 0.674 1.431 0.674 2.222-0.003 1.060-0.426 2.075-1.175 2.825s-1.765 1.172-2.825 1.175zM21.5 3.5h-11c-1.856 0-3.637 0.737-4.95 2.050s-2.050 3.093-2.050 4.95v11c0 1.856 0.737 3.637 2.050 4.95s3.093 2.050 4.95 2.050h11c1.856 0 3.637-0.738 4.95-2.050s2.050-3.093 2.050-4.95v-11c0-1.856-0.738-3.637-2.050-4.95s-3.093-2.050-4.95-2.050zM26.5 21.5c0 0.657-0.129 1.307-0.381 1.913s-0.62 1.158-1.084 1.622c-0.464 0.464-1.015 0.833-1.622 1.084s-1.257 0.381-1.913 0.381h-11c-0.657 0-1.307-0.129-1.913-0.381s-1.158-0.62-1.622-1.084c-0.464-0.464-0.833-1.015-1.084-1.622s-0.381-1.257-0.381-1.913v-11c0-1.326 0.527-2.598 1.464-3.536s2.209-1.464 3.536-1.464h11c0.657 0 1.307 0.129 1.913 0.381s1.158 0.62 1.622 1.084c0.464 0.464 0.833 1.016 1.084 1.622s0.381 1.257 0.381 1.913v11zM24 9.5c0 0.297-0.088 0.587-0.253 0.833s-0.399 0.439-0.673 0.552c-0.274 0.114-0.576 0.143-0.867 0.085s-0.558-0.201-0.768-0.411-0.353-0.477-0.411-0.768c-0.058-0.291-0.028-0.593 0.085-0.867s0.306-0.508 0.552-0.673c0.247-0.165 0.537-0.253 0.833-0.253 0.398 0 0.779 0.158 1.061 0.439s0.439 0.663 0.439 1.061z"></path>
</svg>
