<!-- Generated by IcoMoon.io -->
<svg version="1.1" xmlns="http://www.w3.org/2000/svg" width="32" height="32" viewBox="0 0 32 32">
<title>ph_youtube-logo</title>
<path d="M20.55 15.162l-6-4c-0.152-0.096-0.326-0.152-0.506-0.161s-0.359 0.029-0.519 0.111c-0.16 0.086-0.293 0.215-0.386 0.371s-0.141 0.335-0.139 0.517v8c-0.001 0.182 0.047 0.36 0.139 0.517s0.226 0.285 0.386 0.371c0.148 0.074 0.31 0.112 0.475 0.112 0.195-0.002 0.385-0.058 0.55-0.162l6-4c0.139-0.091 0.254-0.215 0.333-0.361s0.121-0.31 0.121-0.476c0-0.166-0.042-0.33-0.121-0.476s-0.194-0.27-0.333-0.361zM15 18.138v-4.275l3.2 2.138-3.2 2.138zM29.288 8.725c-0.115-0.461-0.34-0.887-0.656-1.242s-0.713-0.628-1.157-0.796c-4.275-1.65-11.1-1.638-11.475-1.638s-7.2-0.013-11.475 1.638c-0.444 0.168-0.841 0.441-1.157 0.796s-0.541 0.781-0.655 1.242c-0.325 1.237-0.712 3.512-0.712 7.275s0.388 6.038 0.712 7.275c0.115 0.461 0.34 0.887 0.655 1.242s0.713 0.628 1.157 0.796c4.1 1.588 10.525 1.638 11.387 1.638h0.175c0.862 0 7.288-0.050 11.388-1.638 0.444-0.168 0.841-0.441 1.157-0.796s0.541-0.781 0.656-1.242c0.325-1.238 0.712-3.513 0.712-7.275s-0.388-6.038-0.712-7.275zM27.35 22.775c-0.037 0.151-0.11 0.291-0.212 0.409s-0.231 0.209-0.376 0.266c-3.962 1.525-10.687 1.5-10.762 1.5h-0.012c-0.063 0-6.788 0.025-10.75-1.5-0.145-0.057-0.274-0.149-0.376-0.266s-0.175-0.258-0.212-0.409c-0.3-1.138-0.65-3.225-0.65-6.775s0.35-5.638 0.65-6.775c0.037-0.151 0.11-0.292 0.212-0.409s0.231-0.209 0.376-0.266c3.813-1.463 10.213-1.5 10.738-1.5h0.025c0.075 0 6.8-0.025 10.762 1.5 0.145 0.057 0.274 0.149 0.376 0.266s0.175 0.258 0.212 0.409c0.3 1.137 0.65 3.225 0.65 6.775s-0.35 5.638-0.65 6.775z"></path>
</svg>
